<svg width="24" height="24" viewBox="0 0 24 24" fill="none" xmlns="http://www.w3.org/2000/svg">
<path d="M21.4293 17.055C21.4266 18.1848 21.1544 19.2976 20.6353 20.301C20.1214 21.2964 19.3728 22.1517 18.4543 22.793C17.5453 23.4282 16.4928 23.8278 15.3913 23.956C14.2923 24.083 13.179 23.9338 12.1523 23.522C11.1181 23.1064 10.2018 22.4429 9.48429 21.59C8.75783 20.7293 8.24978 19.706 8.00329 18.607C7.75296 17.504 7.76976 16.3572 8.05229 15.262C8.33056 14.1713 8.86774 13.1639 9.61829 12.325L4.99229 17.055L2.57129 14.576L7.77229 9.311C8.46479 8.59371 8.84764 7.63299 8.83829 6.636V0H12.2483V6.613C12.2626 7.56956 12.0862 8.5194 11.7293 9.407C11.3748 10.2891 10.8443 11.0897 10.1703 11.76L10.0173 11.916C10.9866 11.0117 12.2002 10.4119 13.5073 10.191C14.8102 9.97506 16.1479 10.149 17.3523 10.691C18.5664 11.2406 19.5945 12.1314 20.3113 13.255C21.0369 14.39 21.4247 15.7079 21.4293 17.055ZM18.3403 17.055C18.3474 16.2998 18.1352 15.5588 17.7293 14.922C17.3281 14.292 16.748 13.7962 16.0633 13.498C15.3842 13.2033 14.6316 13.122 13.9053 13.265C13.1756 13.4098 12.5065 13.7712 11.9853 14.302C11.4579 14.8389 11.0995 15.5186 10.9543 16.257C10.8065 16.9989 10.8778 17.7678 11.1593 18.47C11.4413 19.17 11.9193 19.769 12.5333 20.191C13.144 20.6114 13.8678 20.837 14.6093 20.838C15.0997 20.8422 15.5859 20.7473 16.0387 20.559C16.4915 20.3707 16.9016 20.0928 17.2443 19.742C17.5913 19.391 17.8663 18.972 18.0543 18.511C18.2423 18.05 18.3393 17.555 18.3403 17.055Z" fill="white"/>
</svg>
