<svg width="40" height="40" viewBox="0 0 40 40" fill="none" xmlns="http://www.w3.org/2000/svg">
<path d="M19.2665 14.7833V28.3333H33.8665C36.9498 28.1166 38.3332 26.2166 38.3332 23.8833C38.3332 21.4166 36.4665 19.4333 33.9665 19.4333C33.3332 19.4333 32.7998 19.5666 32.2498 19.8C31.8498 15.9 28.5332 12.85 24.4498 12.85C22.4998 12.85 20.6498 13.5833 19.2665 14.7833ZM17.7998 16.4833C17.2998 16.1833 16.7665 15.95 16.1832 15.8333V28.3333H18.4998V15.5666C18.2498 15.8333 18.0165 16.1666 17.7998 16.4833ZM13.8832 15.5833V28.3333H15.4165V15.6333C15.0998 15.5833 14.7832 15.5666 14.4498 15.5666C14.2498 15.5666 14.0665 15.5666 13.8832 15.5833ZM10.8332 16.6666V28.3333H12.3498V15.9C11.7998 16.0833 11.2832 16.35 10.8332 16.6666ZM8.04984 20.8333C7.94984 20.8333 7.84984 20.7333 7.73317 20.6833V28.3333H9.2665V18.1C8.64984 18.9 8.23317 19.85 8.04984 20.8333ZM4.64984 20.3666V28.1833C4.99984 28.2833 5.39984 28.3333 5.83317 28.3333H6.19984V20.2333C6.0665 20.2166 5.93317 20.2 5.83317 20.2C5.39984 20.2 4.99984 20.2666 4.64984 20.3666ZM1.6665 24.2666C1.6665 25.5166 2.23317 26.6166 3.1165 27.3666V21.1833C2.23317 21.9166 1.6665 23.0333 1.6665 24.2666Z" fill="white"/>
</svg>
