<svg width="40" height="40" viewBox="0 0 40 40" fill="none" xmlns="http://www.w3.org/2000/svg">
<path d="M29.8335 18.1667C24.5002 15 15.5835 14.6667 10.5002 16.25C9.66683 16.5 8.8335 16 8.5835 15.25C8.3335 14.4167 8.8335 13.5834 9.5835 13.3334C15.5002 11.5834 25.2502 11.9167 31.4168 15.5834C32.1668 16 32.4168 17 32.0002 17.75C31.5835 18.3334 30.5835 18.5834 29.8335 18.1667ZM29.6668 22.8334C29.2502 23.4167 28.5002 23.6667 27.9168 23.25C23.4168 20.5 16.5835 19.6667 11.3335 21.3334C10.6668 21.5 9.91683 21.1667 9.75016 20.5C9.5835 19.8334 9.91683 19.0834 10.5835 18.9167C16.6668 17.0834 24.1668 18 29.3335 21.1667C29.8335 21.4167 30.0835 22.25 29.6668 22.8334ZM27.6668 27.4167C27.3335 27.9167 26.7502 28.0834 26.2502 27.75C22.3335 25.3334 17.4168 24.8334 11.5835 26.1667C11.0002 26.3334 10.5002 25.9167 10.3335 25.4167C10.1668 24.8334 10.5835 24.3334 11.0835 24.1667C17.4168 22.75 22.9168 23.3334 27.2502 26C27.8335 26.25 27.9168 26.9167 27.6668 27.4167ZM20.0002 3.33337C17.8115 3.33337 15.6442 3.76447 13.6221 4.60205C11.6 5.43963 9.76269 6.66728 8.21505 8.21493C5.08944 11.3405 3.3335 15.5798 3.3335 20C3.3335 24.4203 5.08944 28.6595 8.21505 31.7852C9.76269 33.3328 11.6 34.5605 13.6221 35.398C15.6442 36.2356 17.8115 36.6667 20.0002 36.6667C24.4204 36.6667 28.6597 34.9108 31.7853 31.7852C34.9109 28.6595 36.6668 24.4203 36.6668 20C36.6668 17.8113 36.2357 15.6441 35.3982 13.622C34.5606 11.5999 33.3329 9.76257 31.7853 8.21493C30.2376 6.66728 28.4003 5.43963 26.3782 4.60205C24.3561 3.76447 22.1889 3.33337 20.0002 3.33337Z" fill="white"/>
</svg>
