<svg width="40" height="40" viewBox="0 0 40 40" fill="none" xmlns="http://www.w3.org/2000/svg">
<path d="M16.6668 25L25.3168 20L16.6668 15V25ZM35.9335 11.95C36.1502 12.7334 36.3002 13.7834 36.4002 15.1167C36.5168 16.45 36.5668 17.6 36.5668 18.6L36.6668 20C36.6668 23.65 36.4002 26.3334 35.9335 28.05C35.5168 29.55 34.5502 30.5167 33.0502 30.9334C32.2668 31.15 30.8335 31.3 28.6335 31.4C26.4668 31.5167 24.4835 31.5667 22.6502 31.5667L20.0002 31.6667C13.0168 31.6667 8.66683 31.4 6.95016 30.9334C5.45016 30.5167 4.4835 29.55 4.06683 28.05C3.85016 27.2667 3.70016 26.2167 3.60016 24.8834C3.4835 23.55 3.4335 22.4 3.4335 21.4L3.3335 20C3.3335 16.35 3.60016 13.6667 4.06683 11.95C4.4835 10.45 5.45016 9.48337 6.95016 9.06671C7.7335 8.85004 9.16683 8.70004 11.3668 8.60004C13.5335 8.48337 15.5168 8.43337 17.3502 8.43337L20.0002 8.33337C26.9835 8.33337 31.3335 8.60004 33.0502 9.06671C34.5502 9.48337 35.5168 10.45 35.9335 11.95Z" fill="#F8F8F8"/>
</svg>
